<?xml version="1.0" encoding="utf-8"?>
<!-- Generator: Adobe Illustrator 16.0.0, SVG Export Plug-In . SVG Version: 6.00 Build 0)  -->
<!DOCTYPE svg PUBLIC "-//W3C//DTD SVG 1.1//EN" "http://www.w3.org/Graphics/SVG/1.1/DTD/svg11.dtd">
<svg version="1.1" id="Layer_1" xmlns="http://www.w3.org/2000/svg" xmlns:xlink="http://www.w3.org/1999/xlink" x="0px" y="0px"
	 width="75.333px" height="75.333px" viewBox="0 0 75.333 75.333" enable-background="new 0 0 75.333 75.333" xml:space="preserve">
<path fill="#E8E8E8" d="M75.333,69.875c0,3.015-2.443,5.459-5.459,5.459H5.46c-3.016,0-5.46-2.444-5.46-5.459V5.46
	C0,2.445,2.444,0,5.46,0h64.415c3.016,0,5.459,2.445,5.459,5.46V69.875z"/>
<g>
	<path fill="#F56908" d="M38.239,9.946H66.99c0,0,1.802-0.07,1.802,1.456v12.18c0,0,0.349,2.529-2.686,1.905L34.944,19.07
		l0.714-1.911l2.239-6.338"/>
	<path fill="#F56908" d="M27.657,38.977l27.526-5.879c1.583-0.383,1.576,1.253,1.576,1.253v15.087c0,0,0.012,1.357-1.473,1.148
		l-30.191-4.593"/>
	<path fill="#F56908" d="M18.411,64.349H7.421c0,0-0.792,0.127-0.792-0.725v-6.146c0-0.931,1.025-1.147,1.025-1.147L22.523,53"/>
	<path fill="#F56908" d="M28.901,35.567l3.795-10.355l0.525-1.433L17.664,23.78c0,0-1.708-0.106-1.86,1.37l-0.711,6.895
		c-0.137,1.333,0.896,1.496,0.896,1.496l12.458,3.338"/>
</g>
</svg>
